<svg width="96" height="32" viewBox="0 0 96 32" fill="none" xmlns="http://www.w3.org/2000/svg">
<path fill-rule="evenodd" clip-rule="evenodd" d="M4.93531 1.08022C10.9396 -3.46269 30.9856 8.57762 30.9856 16.1068C30.9856 23.6359 11.4161 34.9456 4.93531 31.1651C-1.54549 27.3529 -1.06896 5.59137 4.93531 1.08022ZM12.5597 18.8389C12.5597 20.6179 13.0998 22.111 15.546 22.111C15.959 22.111 16.372 22.0157 16.6897 21.8569C17.0391 21.6663 17.2615 21.3804 17.2615 20.9991C17.2615 20.5544 16.9438 20.1414 16.372 20.1414C16.3084 20.1414 16.2767 20.1414 16.1178 20.1732C16.0283 20.1732 15.9489 20.1833 15.8796 20.1921C15.8259 20.1989 15.7782 20.2049 15.7366 20.2049C15.1648 20.2049 14.8471 19.6966 14.8471 18.8071V14.5183H16.2767C17.1662 14.5183 17.325 13.9147 17.325 13.5971C17.325 13.2794 17.1662 12.6758 16.2767 12.6758H14.8471V11.0873C14.8471 10.039 14.0846 9.84836 13.7034 9.84836C13.3222 9.84836 12.5597 10.039 12.5597 11.0873V12.6758H11.7973C10.9078 12.6758 10.7489 13.2794 10.7489 13.5971C10.7489 13.9147 10.9078 14.5183 11.7973 14.5183H12.5597V18.8389Z" fill="#EB4762"/>
<path d="M42.2954 22.1111C39.8492 22.1111 39.3091 20.618 39.3091 18.8389V14.5184H38.5467C37.6571 14.5184 37.4983 13.9148 37.4983 13.5971C37.4983 13.2794 37.6571 12.6758 38.5467 12.6758H39.3091V11.0874C39.3091 10.039 40.0715 9.84839 40.4528 9.84839C40.834 9.84839 41.5964 10.039 41.5964 11.0874V12.6758H43.026C43.9156 12.6758 44.0744 13.2794 44.0744 13.5971C44.0744 13.9148 43.9156 14.5184 43.026 14.5184H41.5964V18.8071C41.5964 19.6967 41.9141 20.205 42.486 20.205C42.5813 20.205 42.7083 20.1732 42.8672 20.1732C43.026 20.1414 43.0578 20.1414 43.1213 20.1414C43.6932 20.1414 44.0109 20.5544 44.0109 20.9992C44.0109 21.3804 43.7885 21.6663 43.439 21.8569C43.1213 22.0158 42.7083 22.1111 42.2954 22.1111Z" fill="#717171"/>
<path d="M50.0468 22.1746C47.2511 22.1746 45.0273 20.1414 45.0273 17.2505C45.0273 14.3278 47.2511 12.3899 50.0468 12.3899C52.8424 12.3899 55.0662 14.3278 55.0662 17.2505C55.098 20.1732 52.8424 22.1746 50.0468 22.1746ZM50.0468 14.296C48.2042 14.296 47.3782 15.8209 47.3782 17.2505C47.3782 18.6801 48.236 20.2685 50.0468 20.2685C51.8894 20.2685 52.7153 18.7118 52.7153 17.2505C52.7153 15.7891 51.8894 14.296 50.0468 14.296Z" fill="#717171"/>
<path d="M65.6134 22.0793C65.264 22.0793 64.5015 21.9204 64.5015 20.8721V20.5226H64.4698C63.8344 21.571 62.5954 22.1746 61.2929 22.1746C58.4655 22.1746 56.75 19.9508 56.75 17.2505C56.75 14.5184 58.5926 12.3899 61.2294 12.3899C62.9131 12.3899 63.8344 13.2476 64.3427 13.8195H64.4062V8.48232C64.4062 7.37042 65.1687 7.17981 65.5499 7.17981C65.9311 7.17981 66.6936 7.37042 66.6936 8.48232V20.8721C66.7253 21.9204 65.9629 22.0793 65.6134 22.0793ZM61.7694 20.2685C63.4532 20.2685 64.4698 18.7436 64.4698 17.314C64.4698 15.8844 63.4532 14.296 61.7694 14.296C59.9904 14.296 59.1009 15.8209 59.1009 17.2505C59.1009 18.68 59.9904 20.2685 61.7694 20.2685Z" fill="#717171"/>
<path d="M77.8444 22.0793C77.4949 22.0793 76.7325 21.9204 76.7325 20.8721V20.5226H76.7007C76.0654 21.571 74.8264 22.1746 73.5239 22.1746C70.6965 22.1746 68.981 19.9508 68.981 17.2505C68.981 14.5184 70.8235 12.3899 73.4603 12.3899C75.1441 12.3899 76.0654 13.2476 76.5737 13.8195H76.6372V8.48232C76.6372 7.37042 77.3996 7.17981 77.7809 7.17981C78.1621 7.17981 78.9245 7.37042 78.9245 8.48232V20.8721C78.9245 21.9204 78.1939 22.0793 77.8444 22.0793ZM74.0004 20.2685C75.6841 20.2685 76.7007 18.7436 76.7007 17.314C76.7007 15.8844 75.6841 14.296 74.0004 14.296C72.2214 14.296 71.3318 15.8209 71.3318 17.2505C71.3318 18.68 72.1896 20.2685 74.0004 20.2685Z" fill="#717171"/>
<path d="M81.7837 8.48232C81.7837 7.37042 82.5461 7.17981 82.9274 7.17981C83.3086 7.17981 84.071 7.37042 84.071 8.48232V20.8085C84.071 21.9205 83.3086 22.1111 82.9274 22.1111C82.5461 22.1111 81.7837 21.9205 81.7837 20.8085V8.48232Z" fill="#717171"/>
<path d="M88.6775 18.0129C88.7728 19.3155 89.98 20.3003 91.3143 20.3003C92.2673 20.3003 92.8709 19.9826 93.4428 19.5061C93.7604 19.2519 93.9828 19.1884 94.237 19.1884C94.7453 19.1884 95.1583 19.5696 95.1583 20.1097C95.1583 20.3003 95.0947 20.6497 94.7771 20.9356C93.8875 21.7934 92.8392 22.1746 91.346 22.1746C88.4869 22.1746 86.3901 20.332 86.3901 17.3458C86.3901 14.3595 88.4869 12.3899 91.2825 12.3899C93.5063 12.3899 95.3171 13.6606 95.6983 16.3927C95.7301 16.5833 95.7301 16.7104 95.7301 16.8693C95.7301 17.6635 95.2853 18.0129 94.5229 18.0129H88.6775ZM93.411 16.361C93.411 15.1538 92.7439 14.1372 91.219 14.1372C89.8529 14.1372 88.741 15.0902 88.6457 16.361H93.411Z" fill="#717171"/>
</svg>
